PathFileType	4	(X/Y/Z)	c:/Users/goper/Files/vsCode/490R/osim_files/C10/C10_SSWS_04.trc
DataRate	CameraRate	NumFrames	NumMarkers	Units                	OrigDataRate	OrigDataStartFrame	OrigNumFrames
250.00	250.00	8	36	mm	250.0	1102	2203
                Frame#	Time	LPSIS			LASIS			LTH1			LTH2			LTH3			LTH4			LLFE			LMFE			LSH1			LSH2			LSH3			LSH4			LLMAL			LMMAL			LCAL			LMTP5			LTOE			LMTP1			RPSIS			RASIS			RTH1			RTH2			RTH3			RTH4			RLFE			RMFE			RSH1			RSH2			RSH3			RSH4			RLMAL			RMMAL			RCAL			RMTP1			RTOE			RMTP5		
		X1	Y1	Z1	X2	Y2	Z2	X3	Y3	Z3	X4	Y4	Z4	X5	Y5	Z5	X6	Y6	Z6	X7	Y7	Z7	X8	Y8	Z8	X9	Y9	Z9	X10	Y10	Z10	X11	Y11	Z11	X12	Y12	Z12	X13	Y13	Z13	X14	Y14	Z14	X15	Y15	Z15	X16	Y16	Z16	X17	Y17	Z17	X18	Y18	Z18	X19	Y19	Z19	X20	Y20	Z20	X21	Y21	Z21	X22	Y22	Z22	X23	Y23	Z23	X24	Y24	Z24	X25	Y25	Z25	X26	Y26	Z26	X27	Y27	Z27	X28	Y28	Z28	X29	Y29	Z29	X30	Y30	Z30	X31	Y31	Z31	X32	Y32	Z32	X33	Y33	Z33	X34	Y34	Z34	X35	Y35	Z35	X36	Y36	Z36

1102	4.40400	539.26013	1023.21100	309.70807	381.41641	1005.81934	437.92233	384.14600	774.06860	483.05942	364.05704	731.02942	481.34894	331.17020	795.87341	465.27014	317.87238	750.76709	462.73715	0.00000	0.00000	0.00000	250.69196	497.05621	304.92236	345.17337	458.04077	427.20996	372.33960	419.17233	431.07132	295.88440	422.39734	425.17169	326.83963	388.41907	429.10599	508.82877	182.85580	405.09137	0.00000	0.00000	0.00000	589.33075	165.32675	354.03467	448.61087	78.66277	432.50494	388.99149	71.41611	376.18350	425.91949	60.91172	328.12231	536.08569	1029.49268	227.36258	379.14606	1010.01569	104.90646	454.53305	742.87006	69.64484	443.92694	700.03473	74.13223	395.19342	752.66028	67.34367	392.59244	708.18304	72.35655	416.07135	482.35706	144.79950	412.56497	481.66431	257.23727	489.96753	391.64136	133.92070	486.85004	347.83932	135.38435	427.35202	388.47665	143.80739	434.60962	346.32693	142.03009	481.06519	85.73933	195.32587	468.53711	97.88057	276.81671	538.66925	41.70086	234.86259	345.11292	32.33094	263.14401	315.08578	52.06352	234.32349	361.92761	33.33177	169.56950
1103	4.40800	534.57416	1023.06018	310.08389	376.35541	1006.06927	437.62729	378.69809	774.70087	483.46564	354.20538	733.24414	483.56485	325.88345	796.72473	465.61871	312.27417	751.71143	463.20093	0.00000	0.00000	0.00000	241.62083	499.01398	304.29114	336.70419	458.03116	427.21188	362.89325	418.58542	431.11374	286.51544	423.51398	425.47012	316.71530	388.80423	429.33780	493.85208	178.93469	405.52808	0.00000	0.00000	0.00000	573.78192	159.14450	354.30338	431.12646	76.54569	433.64990	371.19510	70.37249	377.50143	407.79578	58.61709	329.38333	531.40009	1029.21521	227.68159	374.06509	1010.14557	104.92303	451.03226	742.87823	69.76726	440.60254	700.01514	74.22453	392.13510	752.57959	66.99722	389.53116	708.07819	72.28496	414.26355	482.14633	144.87004	411.13037	481.53146	257.29279	488.53168	391.72244	133.74756	485.49966	347.86783	135.28877	425.95786	388.32526	143.89931	433.31784	346.20865	142.05995	480.92816	85.79304	195.32831	468.41757	97.90722	276.86322	538.63574	41.70980	234.82491	345.08340	32.33991	263.14917	315.03394	52.03811	234.28346	361.91888	33.34335	169.52536
1104	4.41200	529.87616	1022.76538	310.49136	371.21902	1006.36676	437.33340	373.27850	775.31854	483.80032	348.67587	733.81982	483.91699	320.35031	797.87396	466.13824	306.79135	752.47845	463.65396	0.00000	0.00000	0.00000	234.36710	500.42191	304.36536	328.32968	457.92841	427.23270	353.47650	417.87335	431.25021	277.18530	424.56076	425.62189	306.54227	389.27679	429.64966	478.81808	174.99800	405.88095	0.00000	0.00000	0.00000	558.10394	152.93761	354.36298	413.43283	74.57796	434.82486	353.24585	69.52718	378.93631	389.52383	56.49589	330.72189	526.71448	1028.91284	228.08038	370.22861	1009.38562	104.45809	447.44470	742.87146	69.88532	437.32043	699.99200	74.28848	388.98627	752.24432	67.27738	386.25394	707.87787	73.04427	412.53394	481.90375	144.94719	409.52972	481.34683	257.29395	487.11874	391.78018	133.59999	484.22739	347.93463	135.16779	424.66440	388.25577	143.89342	432.11957	346.03293	142.09579	480.79266	85.84694	195.33298	468.31580	97.94875	276.87659	538.62610	41.71498	234.79558	345.08032	32.33706	263.17773	314.98706	51.99070	234.26291	361.90067	33.32103	169.51329
1105	4.41600	525.13885	1022.46460	310.94577	366.10757	1006.56555	437.00848	368.36816	775.87805	484.18573	348.72916	735.96222	482.76321	315.26389	798.25281	466.30927	301.20926	753.32562	464.16370	0.00000	0.00000	0.00000	227.10313	501.88373	304.40857	319.97110	457.73972	427.27185	344.18158	417.11304	431.39615	268.36826	425.70480	425.92935	298.66400	389.50711	427.40756	463.57581	171.04269	406.25067	0.00000	0.00000	0.00000	542.04681	146.63805	354.63553	395.70767	72.61674	435.91956	335.40970	69.01595	380.69897	370.78760	54.70537	332.30112	522.04028	1028.60474	228.49821	365.06595	1009.40448	104.48024	444.42923	744.79620	70.92077	433.97070	699.92621	74.32191	384.53046	752.01062	68.53938	382.99576	707.54987	72.42701	410.65378	481.66568	145.06937	407.91440	481.22443	257.29660	485.60727	391.88077	133.45586	483.05429	348.08203	135.02945	423.26993	388.05536	143.94833	430.83649	345.92853	142.08896	480.64505	85.89469	195.34209	468.91324	98.25042	276.95996	538.52246	41.75357	234.77136	344.97873	32.37593	263.18314	314.92938	51.97831	234.21231	361.85974	33.32338	169.47287
1106	4.42000	520.48572	1022.13702	311.42908	361.07095	1006.64734	436.83267	362.91476	776.21259	484.66666	342.95529	736.42120	483.19595	310.01083	798.90576	466.67801	295.62192	754.05865	464.57910	0.00000	0.00000	0.00000	219.91566	503.27368	304.44968	311.84720	457.42188	427.39563	334.93170	416.27530	431.60364	258.89285	426.37897	425.98569	288.73550	389.76807	427.54422	448.20462	167.05247	406.62054	0.00000	0.00000	0.00000	526.08899	140.51900	354.77573	378.05756	70.73436	436.95175	316.67419	68.55849	381.70081	352.24454	53.40966	333.06769	517.41779	1028.30383	228.88791	362.39188	1008.06500	104.03423	442.19272	745.56372	70.18423	430.56558	699.79877	74.38681	381.00400	751.72211	68.63548	379.79684	707.20862	72.47346	408.87430	481.43524	145.14006	406.27502	480.94678	257.24475	483.33810	391.46478	133.15874	481.69308	348.06277	134.98161	421.91553	387.86258	143.98581	429.57996	345.78445	142.16711	480.52115	85.93462	195.34151	468.74829	98.27068	276.97275	538.57178	41.85509	234.68675	345.04214	32.39933	263.18451	314.90359	51.93248	234.15918	361.87125	33.29560	169.44188
1107	4.42400	515.78320	1021.73895	311.94974	355.96512	1006.67908	436.61847	355.72418	776.30249	484.90048	337.31589	736.82391	483.63589	304.79797	799.49384	467.02570	290.07867	754.73846	464.96384	0.00000	0.00000	0.00000	212.93419	504.50809	304.49399	303.68561	456.95837	427.60263	325.71640	415.24289	431.89615	250.00108	427.12021	426.15564	278.59079	389.53006	427.70312	432.82025	163.12567	406.93527	0.00000	0.00000	0.00000	509.69794	134.35864	354.86542	360.50366	69.03520	438.00769	298.66077	68.01517	383.07288	333.59247	51.60471	334.35117	512.75757	1027.95349	229.39735	357.78641	1007.81708	103.70164	438.68307	745.53546	70.16870	427.13934	699.67926	74.44406	376.69809	751.15790	69.07817	376.69254	706.87628	72.51160	407.13861	481.31989	145.20825	404.45749	480.63681	257.18906	482.01443	391.60641	133.13768	480.37988	348.13373	134.93750	420.58017	387.73337	144.03616	428.35889	345.68179	142.16692	480.36929	85.97684	195.37506	468.61105	98.30367	276.98434	538.61859	41.93338	234.62996	345.10199	32.41033	263.20966	314.89017	51.88667	234.13649	361.81369	33.28458	169.41939
1108	4.42800	511.02087	1021.23901	312.54108	350.90634	1006.66510	436.44955	350.78378	776.58105	485.32498	331.56958	737.13037	484.13309	298.55829	800.32196	467.23859	283.94003	755.58942	465.28333	0.00000	0.00000	0.00000	206.11565	505.70911	304.58771	295.43652	456.26926	427.94366	316.46063	414.06116	432.22113	241.12067	427.73419	426.38229	268.74179	389.52750	427.91473	417.22217	159.18880	407.29181	0.00000	0.00000	0.00000	492.79477	127.97935	354.72983	342.52319	67.15134	438.98962	280.47928	67.57523	384.38577	314.41867	49.89791	335.53430	508.06961	1027.54578	229.99156	353.18332	1007.16486	103.50658	435.21384	745.50378	70.13568	423.72278	699.47015	74.48480	373.82379	751.05286	68.78883	373.46802	706.85901	72.30566	405.28796	480.94473	145.22539	402.64795	480.31918	257.12567	480.84003	391.96008	133.03568	479.12439	348.23108	134.90332	419.31400	387.63474	144.00865	427.08316	345.55887	142.19225	480.23898	86.05451	195.40250	468.06384	98.34774	276.96524	538.63434	41.94296	234.64262	345.11731	32.44113	263.24274	314.65060	51.88192	234.11076	361.79034	33.27442	169.38910
1109	4.43200	506.24893	1020.71320	313.14005	345.80087	1006.65973	436.30460	345.43378	776.75629	485.77560	325.92224	737.45398	484.56580	293.70303	800.68365	467.56247	278.79919	755.98389	465.77072	0.00000	0.00000	0.00000	199.39957	506.72009	304.70892	287.29587	455.42114	428.37225	307.27628	412.81042	432.62891	232.33186	428.25885	426.59235	258.98264	389.46851	428.09296	401.53763	155.22336	407.65402	0.00000	0.00000	0.00000	476.33499	122.12339	354.96075	325.37064	64.89263	438.15155	262.67651	66.91817	385.49432	295.89056	48.83264	336.18555	503.34030	1027.14880	230.63104	348.93906	1006.75879	103.42725	432.52539	745.71771	68.70820	420.32098	699.24658	74.53397	370.23328	750.61621	68.88207	370.15195	706.60632	72.47063	403.50336	480.75974	145.22499	400.70312	479.88388	257.05011	479.53387	392.10736	133.06723	477.92975	348.34122	134.87325	418.09576	387.46432	144.07620	425.90875	345.44647	142.20134	480.11063	86.12962	195.43381	467.93515	98.34024	277.02594	538.56702	41.91591	234.68138	345.05313	32.30587	263.28281	314.77570	51.73286	234.12865	361.79410	33.27101	169.35887
